<?xml version="1.0" encoding="UTF-8" standalone="no"?>
<svg
   xmlns:dc="http://purl.org/dc/elements/1.1/"
   xmlns:cc="http://creativecommons.org/ns#"
   xmlns:rdf="http://www.w3.org/1999/02/22-rdf-syntax-ns#"
   xmlns:svg="http://www.w3.org/2000/svg"
   xmlns="http://www.w3.org/2000/svg"
   xmlns:sodipodi="http://sodipodi.sourceforge.net/DTD/sodipodi-0.dtd"
   xmlns:inkscape="http://www.inkscape.org/namespaces/inkscape"
   width="100"
   height="100"
   viewBox="0 0 100 100"
   version="1.1"
   id="svg8"
   inkscape:version="1.0.2 (e86c8708, 2021-01-15)"
   sodipodi:docname="logo.svg">
  <defs
     id="defs2" />
  <sodipodi:namedview
     id="base"
     pagecolor="#ffffff"
     bordercolor="#666666"
     borderopacity="1.0"
     inkscape:pageopacity="0.0"
     inkscape:pageshadow="2"
     inkscape:zoom="1"
     inkscape:cx="258.50008"
     inkscape:cy="206.73588"
     inkscape:document-units="px"
     inkscape:current-layer="layer1"
     inkscape:document-rotation="0"
     showgrid="false"
     inkscape:snap-to-guides="true"
     inkscape:snap-grids="true"
     inkscape:window-width="1775"
     inkscape:window-height="997"
     inkscape:window-x="1841"
     inkscape:window-y="41"
     inkscape:window-maximized="0"
     units="px"
     scale-x="0.25"
     viewbox-width="100"
     viewbox-height="100"
     showborder="true" />
  <metadata
     id="metadata5">
    <rdf:RDF>
      <cc:Work
         rdf:about="">
        <dc:format>image/svg+xml</dc:format>
        <dc:type
           rdf:resource="http://purl.org/dc/dcmitype/StillImage" />
        <dc:title></dc:title>
      </cc:Work>
    </rdf:RDF>
  </metadata>
  <g
     inkscape:label="Layer 1"
     inkscape:groupmode="layer"
     id="layer1"
     transform="translate(-51.404762,-99.029755)">
    <rect
       style="fill:#303846;fill-opacity:1;stroke-width:0.248252;stop-color:#000000"
       id="rect10"
       width="100"
       height="100"
       x="51.404762"
       y="99.029755"
       ry="17.386879" />
    <circle
       id="path300"
       style="fill:#f4eed7;stroke:#000000;stroke-width:0.264582"
       cx="128.11404"
       cy="164.32019"
       r="0.046009384" />
    <path
       id="path63-6"
       style="fill:#d45500;fill-opacity:1;stroke-width:0.095012;stop-color:#000000"
       d="m 138.60309,120.17526 c -1.52449,0.42224 -3.07249,1.32044 -3.78633,2.89812 -0.34184,1.2974 0.82784,1.99144 1.35206,2.88372 1.81673,2.60036 3.02125,6.00532 2.13208,9.59872 -0.51387,1.88792 -1.77847,3.52876 -2.86987,5.16588 -5.45792,7.61964 -13.59096,13.2708 -22.06628,15.32056 -4.42667,1.14796 -9.09704,1.613 -13.13428,0.1932 -11.054069,-3.09852 -9.523085,-5.63708 -16.665905,-10.27872 -5.486828,-3.22896 -12.590556,-3.9772 -18.422048,-1.1894 -4.036144,1.8616 -7.52428,5.0594 -9.45674,9.07728 -0.579648,1.70608 0.24488,4.06132 2.188032,4.3822 1.718768,0.3292 3.078388,-1.05732 4.082072,-2.25168 2.658232,-2.67616 5.7791,-5.30324 9.629808,-5.99384 7.525972,0.57832 14.213768,4.28276 15.923348,11.05272 1.212208,4.01976 0.742652,8.49964 -1.32488,12.16536 -1.242928,2.17544 -2.6692,4.2804 -4.422468,6.08068 -1.19,1.23176 -2.636632,2.16788 -3.966032,3.22628 -1.303028,1.30124 -1.344036,3.8136 0.3058,4.85152 1.536208,1.08268 3.523384,0.3976 5.048144,-0.3476 6.2579,-2.8368 10.508968,-9.11652 11.709512,-15.76736 0.258,-2.87936 0.09228,-5.83212 -0.469028,-8.68712 0.520384,0.1032 1.043716,0.1888 1.566936,0.2552 2.777424,0.2516 5.664099,-0.1504 8.510599,-0.54932 6.91858,-1.12508 13.78623,-3.47864 20.28977,-6.95496 7.25389,-3.93504 14.09937,-9.58396 18.63483,-16.89328 2.17614,-3.54 3.6963,-7.78924 2.89381,-11.59584 -0.50078,-2.64272 -2.02024,-4.88588 -4.18691,-6.17168 -0.63446,-0.41724 -1.52995,-0.89312 -2.45479,-0.68956 -0.33876,0.0492 -0.68943,0.1216 -1.04123,0.2192 z"
       sodipodi:nodetypes="scccccccccccccccccccccccccccs" />
  </g>
</svg>
